<?xml version="1.0" standalone="no"?>
<!DOCTYPE svg PUBLIC "-//W3C//DTD SVG 20010904//EN"
 "http://www.w3.org/TR/2001/REC-SVG-20010904/DTD/svg10.dtd">
<svg version="1.0" xmlns="http://www.w3.org/2000/svg"
 width="640.000000pt" height="640.000000pt" viewBox="0 0 640.000000 640.000000"
 preserveAspectRatio="xMidYMid meet">
<metadata>
Created by potrace 1.11, written by Peter Selinger 2001-2013
</metadata>
<g transform="translate(0.000000,640.000000) scale(0.100000,-0.100000)"
fill="#000000" stroke="none">
<path d="M510 6391 c-54 -12 -170 -61 -220 -94 -124 -82 -218 -207 -265 -352
-20 -59 -20 -103 -20 -2730 0 -1469 3 -2683 6 -2700 27 -124 87 -232 179 -325
84 -84 178 -138 295 -170 68 -18 156 -19 2735 -17 l2665 2 72 26 c166 60 299
175 372 321 77 156 71 -80 69 2885 l-3 2658 -29 75 c-85 222 -266 378 -487
420 -60 12 -5313 12 -5369 1z m5730 -3693 c0 -2272 2 -2174 -52 -2273 -71
-132 -180 -217 -320 -250 -55 -13 -402 -15 -2668 -14 -2126 1 -2616 3 -2666
14 -137 30 -256 123 -325 254 -49 94 -47 23 -48 2269 l-1 2102 3040 0 3040 0
0 -2102z"/>
<path d="M1098 3355 c-2 -2 -21 -6 -43 -9 -55 -9 -160 -44 -220 -74 -158 -79
-316 -252 -375 -410 -54 -145 -54 -136 -58 -634 l-3 -468 240 0 241 0 0 418
c0 447 4 485 53 557 29 44 86 92 137 117 68 33 197 32 264 -2 65 -33 118 -85
153 -151 l28 -54 3 -442 3 -443 239 0 239 0 3 443 c3 435 3 443 25 487 46 90
113 148 207 175 149 43 303 -27 376 -171 l25 -49 3 -442 3 -443 240 0 240 0
-3 473 c-4 458 -5 474 -27 542 -100 312 -317 507 -639 574 -66 14 -249 6 -327
-13 -94 -24 -224 -88 -298 -147 -66 -53 -69 -55 -89 -36 -101 93 -244 162
-404 196 -37 7 -229 12 -236 6z"/>
<path d="M3945 3349 c-258 -48 -468 -208 -589 -446 -14 -29 -24 -53 -22 -53 3
0 -2 -16 -10 -37 -38 -89 -43 -169 -44 -617 l0 -436 239 0 240 0 3 443 c3 435
3 443 25 487 62 124 184 197 310 187 59 -5 74 -9 130 -33 74 -33 157 -145 167
-227 3 -17 5 -218 5 -444 l1 -413 240 0 240 0 0 418 c0 447 4 485 53 557 29
44 86 92 137 117 63 31 195 31 260 0 89 -43 156 -122 178 -214 8 -32 12 -179
12 -462 l0 -416 241 0 240 0 -4 463 c-2 254 -6 471 -9 482 -3 11 -9 34 -13 50
-39 175 -179 373 -334 472 -146 94 -284 132 -459 129 -129 -3 -218 -24 -330
-78 -75 -36 -176 -105 -194 -132 -9 -13 -28 -2 -109 59 -88 66 -204 118 -314
140 -52 11 -238 13 -290 4z"/>
</g>
</svg>
